<?xml version="1.0" encoding="UTF-8"?>
<!DOCTYPE svg PUBLIC "-//W3C//DTD SVG 1.1//EN" "http://www.w3.org/Graphics/SVG/1.1/DTD/svg11.dtd">
<svg xmlns="http://www.w3.org/2000/svg" version="1.1" width="48px" height="48px" style="shape-rendering:geometricPrecision; text-rendering:geometricPrecision; image-rendering:optimizeQuality; fill-rule:evenodd; clip-rule:evenodd" xmlns:xlink="http://www.w3.org/1999/xlink">
<g><path style="opacity:0.974" fill="#b1b2d6" d="M 16.5,-0.5 C 17.1667,-0.5 17.8333,-0.5 18.5,-0.5C 18.5,15.5 18.5,31.5 18.5,47.5C 17.8333,47.5 17.1667,47.5 16.5,47.5C 16.5,47.1667 16.5,46.8333 16.5,46.5C 16.5,31.1667 16.5,15.8333 16.5,0.5C 16.5,0.166667 16.5,-0.166667 16.5,-0.5 Z"/></g>
<g><path style="opacity:0.995" fill="#a7a9d1" d="M 18.5,-0.5 C 19.1667,-0.5 19.8333,-0.5 20.5,-0.5C 20.5,15.5 20.5,31.5 20.5,47.5C 19.8333,47.5 19.1667,47.5 18.5,47.5C 18.5,31.5 18.5,15.5 18.5,-0.5 Z"/></g>
<g><path style="opacity:1" fill="#9fa0cc" d="M 20.5,-0.5 C 21.1667,-0.5 21.8333,-0.5 22.5,-0.5C 22.5,15.5 22.5,31.5 22.5,47.5C 21.8333,47.5 21.1667,47.5 20.5,47.5C 20.5,31.5 20.5,15.5 20.5,-0.5 Z"/></g>
<g><path style="opacity:1" fill="#9698c7" d="M 22.5,-0.5 C 23.1667,-0.5 23.8333,-0.5 24.5,-0.5C 24.5,15.5 24.5,31.5 24.5,47.5C 23.8333,47.5 23.1667,47.5 22.5,47.5C 22.5,31.5 22.5,15.5 22.5,-0.5 Z"/></g>
<g><path style="opacity:1" fill="#948fbe" d="M 24.5,-0.5 C 25.5,-0.5 26.5,-0.5 27.5,-0.5C 27.5,15.5 27.5,31.5 27.5,47.5C 26.5,47.5 25.5,47.5 24.5,47.5C 24.5,31.5 24.5,15.5 24.5,-0.5 Z"/></g>
<g><path style="opacity:0.984" fill="#9487b2" d="M 27.5,-0.5 C 28.1667,-0.5 28.8333,-0.5 29.5,-0.5C 29.5,15.5 29.5,31.5 29.5,47.5C 28.8333,47.5 28.1667,47.5 27.5,47.5C 27.5,31.5 27.5,15.5 27.5,-0.5 Z"/></g>
<g><path style="opacity:0.953" fill="#babbdb" d="M 13.5,1.5 C 14.209,0.596028 15.209,0.262695 16.5,0.5C 16.5,15.8333 16.5,31.1667 16.5,46.5C 15.209,46.7373 14.209,46.404 13.5,45.5C 14.8333,30.8333 14.8333,16.1667 13.5,1.5 Z"/></g>
<g><path style="opacity:0.997" fill="#9480a8" d="M 29.5,-0.5 C 29.8333,-0.5 30.1667,-0.5 30.5,-0.5C 30.5,0.166667 30.8333,0.5 31.5,0.5C 31.5,15.8333 31.5,31.1667 31.5,46.5C 30.8333,46.5 30.5,46.8333 30.5,47.5C 30.1667,47.5 29.8333,47.5 29.5,47.5C 29.5,31.5 29.5,15.5 29.5,-0.5 Z"/></g>
<g><path style="opacity:0.953" fill="#967a9f" d="M 31.5,0.5 C 32.4916,0.32842 33.1583,0.661754 33.5,1.5C 33.5,16.1667 33.5,30.8333 33.5,45.5C 33.1583,46.3382 32.4916,46.6716 31.5,46.5C 31.5,31.1667 31.5,15.8333 31.5,0.5 Z"/></g>
<g><path style="opacity:0.954" fill="#c9cae3" d="M 12.5,1.5 C 12.5,16.1667 12.5,30.8333 12.5,45.5C 11.8333,45.1667 11.1667,44.8333 10.5,44.5C 11.8333,30.5 11.8333,16.5 10.5,2.5C 11.1667,2.16667 11.8333,1.83333 12.5,1.5 Z"/></g>
<g><path style="opacity:1" fill="#c2c3df" d="M 12.5,1.5 C 12.8333,1.5 13.1667,1.5 13.5,1.5C 14.8333,16.1667 14.8333,30.8333 13.5,45.5C 13.1667,45.5 12.8333,45.5 12.5,45.5C 12.5,30.8333 12.5,16.1667 12.5,1.5 Z"/></g>
<g><path style="opacity:1" fill="#9c7491" d="M 33.5,1.5 C 34.4916,1.32842 35.1583,1.66175 35.5,2.5C 35.5,16.5 35.5,30.5 35.5,44.5C 35.1583,45.3382 34.4916,45.6716 33.5,45.5C 33.5,30.8333 33.5,16.1667 33.5,1.5 Z"/></g>
<g><path style="opacity:0.955" fill="#a56f82" d="M 35.5,2.5 C 36.4916,2.32842 37.1583,2.66175 37.5,3.5C 37.5,16.8333 37.5,30.1667 37.5,43.5C 37.1583,44.3382 36.4916,44.6716 35.5,44.5C 35.5,30.5 35.5,16.5 35.5,2.5 Z"/></g>
<g><path style="opacity:1" fill="#d1d2e7" d="M 10.5,2.5 C 11.8333,16.5 11.8333,30.5 10.5,44.5C 9.5,44.1667 8.83333,43.5 8.5,42.5C 8.5,29.8333 8.5,17.1667 8.5,4.5C 8.83333,3.5 9.5,2.83333 10.5,2.5 Z"/></g>
<g><path style="opacity:0.977" fill="#ae6a73" d="M 37.5,3.5 C 38.5,3.83333 39.1667,4.5 39.5,5.5C 39.5,17.5 39.5,29.5 39.5,41.5C 39.1667,42.5 38.5,43.1667 37.5,43.5C 37.5,30.1667 37.5,16.8333 37.5,3.5 Z"/></g>
<g><path style="opacity:1" fill="#dcdcec" d="M 8.5,4.5 C 8.5,17.1667 8.5,29.8333 8.5,42.5C 7.5,42.1667 6.83333,41.5 6.5,40.5C 6.5,29.1667 6.5,17.8333 6.5,6.5C 6.83333,5.5 7.5,4.83333 8.5,4.5 Z"/></g>
<g><path style="opacity:0.955" fill="#e3e4f1" d="M 6.5,6.5 C 6.5,17.8333 6.5,29.1667 6.5,40.5C 5.5,40.1667 4.83333,39.5 4.5,38.5C 5.83333,28.5 5.83333,18.5 4.5,8.5C 4.83333,7.5 5.5,6.83333 6.5,6.5 Z"/></g>
<g><path style="opacity:0.978" fill="#ba6663" d="M 39.5,5.5 C 40.5,5.83333 41.1667,6.5 41.5,7.5C 41.5,18.1667 41.5,28.8333 41.5,39.5C 41.1667,40.5 40.5,41.1667 39.5,41.5C 39.5,29.5 39.5,17.5 39.5,5.5 Z"/></g>
<g><path style="opacity:1" fill="#e9e9f3" d="M 4.5,8.5 C 5.83333,18.5 5.83333,28.5 4.5,38.5C 3.83333,38.5 3.5,38.1667 3.5,37.5C 3.5,28.1667 3.5,18.8333 3.5,9.5C 3.5,8.83333 3.83333,8.5 4.5,8.5 Z"/></g>
<g><path style="opacity:0.95" fill="#c86252" d="M 41.5,7.5 C 42.5,7.83333 43.1667,8.5 43.5,9.5C 43.5,18.8333 43.5,28.1667 43.5,37.5C 43.1667,38.5 42.5,39.1667 41.5,39.5C 41.5,28.8333 41.5,18.1667 41.5,7.5 Z"/></g>
<g><path style="opacity:0.871" fill="#f0f0f7" d="M 3.5,9.5 C 3.5,18.8333 3.5,28.1667 3.5,37.5C 2.59872,36.7095 1.93205,35.7095 1.5,34.5C 2.83333,27.1667 2.83333,19.8333 1.5,12.5C 1.93205,11.2905 2.59872,10.2905 3.5,9.5 Z"/></g>
<g><path style="opacity:0.941" fill="#f8f8fb" d="M 1.5,12.5 C 2.83333,19.8333 2.83333,27.1667 1.5,34.5C 1.01131,33.0048 0.344644,31.6715 -0.5,30.5C -0.5,25.8333 -0.5,21.1667 -0.5,16.5C 0.344644,15.3285 1.01131,13.9952 1.5,12.5 Z"/></g>
<g><path style="opacity:1" fill="#d75f41" d="M 43.5,9.5 C 44.6737,10.5137 45.3404,11.847 45.5,13.5C 45.5,20.1667 45.5,26.8333 45.5,33.5C 45.3404,35.153 44.6737,36.4863 43.5,37.5C 43.5,28.1667 43.5,18.8333 43.5,9.5 Z"/></g>
<g><path style="opacity:0.925" fill="#e75b2e" d="M 45.5,13.5 C 46.1667,14.5 46.8333,15.5 47.5,16.5C 47.5,21.1667 47.5,25.8333 47.5,30.5C 46.8333,31.5 46.1667,32.5 45.5,33.5C 45.5,26.8333 45.5,20.1667 45.5,13.5 Z"/></g>
</svg>
